<svg width="13" height="12" viewBox="0 0 13 12" fill="none" xmlns="http://www.w3.org/2000/svg">
<path d="M2.39474 5.4L6.15789 0L9.92105 5.4H2.39474ZM9.92105 12C9.06579 12 8.33893 11.7376 7.74047 11.2128C7.14201 10.688 6.84256 10.0504 6.8421 9.29999C6.84165 8.5496 7.1411 7.9122 7.74047 7.3878C8.33984 6.8634 9.0667 6.6008 9.92105 6.6C10.7754 6.5992 11.5025 6.8618 12.1023 7.3878C12.7021 7.9138 13.0014 8.5512 13 9.29999C12.9986 10.0488 12.6994 10.6864 12.1023 11.2128C11.5052 11.7392 10.7781 12.0016 9.92105 12ZM0 11.7V6.9H5.47368V11.7H0Z" fill="white"/>
</svg>
