<svg width="81" height="90" viewBox="0 0 81 90" fill="none" xmlns="http://www.w3.org/2000/svg">
<path d="M22.5 54C21.225 54 20.157 53.568 19.296 52.704C18.435 51.84 18.003 50.772 18 49.5C17.997 48.228 18.429 47.16 19.296 46.296C20.163 45.432 21.231 45 22.5 45C23.769 45 24.8385 45.432 25.7085 46.296C26.5785 47.16 27.009 48.228 27 49.5C26.991 50.772 26.559 51.8415 25.704 52.7085C24.849 53.5755 23.781 54.006 22.5 54ZM40.5 54C39.225 54 38.157 53.568 37.296 52.704C36.435 51.84 36.003 50.772 36 49.5C35.997 48.228 36.429 47.16 37.296 46.296C38.163 45.432 39.231 45 40.5 45C41.769 45 42.8385 45.432 43.7085 46.296C44.5785 47.16 45.009 48.228 45 49.5C44.991 50.772 44.559 51.8415 43.704 52.7085C42.849 53.5755 41.781 54.006 40.5 54ZM58.5 54C57.225 54 56.157 53.568 55.296 52.704C54.435 51.84 54.003 50.772 54 49.5C53.997 48.228 54.429 47.16 55.296 46.296C56.163 45.432 57.231 45 58.5 45C59.769 45 60.8385 45.432 61.7085 46.296C62.5785 47.16 63.009 48.228 63 49.5C62.991 50.772 62.559 51.8415 61.704 52.7085C60.849 53.5755 59.781 54.006 58.5 54ZM9 90C6.525 90 4.407 89.1195 2.646 87.3585C0.885 85.5975 0.003 83.478 0 81V18C0 15.525 0.882 13.407 2.646 11.646C4.41 9.885 6.528 9.003 9 9H13.5V0H22.5V9H58.5V0H67.5V9H72C74.475 9 76.5945 9.882 78.3585 11.646C80.1225 13.41 81.003 15.528 81 18V81C81 83.475 80.1195 85.5945 78.3585 87.3585C76.5975 89.1225 74.478 90.003 72 90H9ZM9 81H72V36H9V81ZM9 27H72V18H9V27Z" fill="white"/>
</svg>
