<svg width="129" height="41" viewBox="0 0 129 41" fill="none" xmlns="http://www.w3.org/2000/svg">
<path d="M48.574 9.22002H50.772L51.752 16.234H51.78L52.76 9.22002H54.958V19.02H53.502V11.6H53.474L52.354 19.02H51.066L49.946 11.6H49.918V19.02H48.574V9.22002ZM57.0872 9.22002H58.6272V17.62H61.1612V19.02H57.0872V9.22002ZM64.8817 19.16C64.135 19.16 63.5704 18.95 63.1877 18.53C62.805 18.1007 62.6137 17.4894 62.6137 16.696V16.136H64.0697V16.808C64.0697 17.4427 64.3357 17.76 64.8677 17.76C65.129 17.76 65.325 17.6854 65.4557 17.536C65.5957 17.3774 65.6657 17.1254 65.6657 16.78C65.6657 16.3694 65.5724 16.01 65.3857 15.702C65.199 15.3847 64.8537 15.0067 64.3497 14.568C63.715 14.008 63.2717 13.504 63.0197 13.056C62.7677 12.5987 62.6417 12.0854 62.6417 11.516C62.6417 10.7414 62.8377 10.144 63.2297 9.72402C63.6217 9.29469 64.191 9.08002 64.9377 9.08002C65.675 9.08002 66.2304 9.29469 66.6037 9.72402C66.9864 10.144 67.1777 10.7507 67.1777 11.544V11.95H65.7217V11.446C65.7217 11.11 65.6564 10.8674 65.5257 10.718C65.395 10.5594 65.2037 10.48 64.9517 10.48C64.4384 10.48 64.1817 10.7927 64.1817 11.418C64.1817 11.7727 64.275 12.104 64.4617 12.412C64.6577 12.72 65.0077 13.0934 65.5117 13.532C66.1557 14.092 66.599 14.6007 66.8417 15.058C67.0844 15.5154 67.2057 16.052 67.2057 16.668C67.2057 17.4707 67.005 18.0867 66.6037 18.516C66.2117 18.9454 65.6377 19.16 64.8817 19.16ZM48.574 26.22H50.898C51.6913 26.22 52.27 26.4067 52.634 26.78C52.998 27.144 53.18 27.7087 53.18 28.474V28.866C53.18 29.37 53.096 29.7807 52.928 30.098C52.7693 30.4154 52.522 30.644 52.186 30.784V30.812C52.9513 31.0734 53.334 31.7547 53.334 32.856V33.696C53.334 34.452 53.1333 35.0307 52.732 35.432C52.34 35.824 51.7613 36.02 50.996 36.02H48.574V26.22ZM50.716 30.21C51.024 30.21 51.2527 30.1307 51.402 29.972C51.5607 29.8134 51.64 29.5474 51.64 29.174V28.628C51.64 28.2734 51.5747 28.0167 51.444 27.858C51.3227 27.6994 51.1267 27.62 50.856 27.62H50.114V30.21H50.716ZM50.996 34.62C51.2667 34.62 51.4673 34.55 51.598 34.41C51.7287 34.2607 51.794 34.0087 51.794 33.654V32.8C51.794 32.352 51.7147 32.044 51.556 31.876C51.4067 31.6987 51.1547 31.61 50.8 31.61H50.114V34.62H50.996ZM55.2142 26.22H56.7542V36.02H55.2142V26.22ZM58.8875 26.22H60.4275V34.62H62.9615V36.02H58.8875V26.22ZM63.6314 26.22H65.1854L66.1934 33.822H66.2214L67.2294 26.22H68.6434L67.1594 36.02H65.1154L63.6314 26.22ZM71.1567 26.22H73.2427L74.8387 36.02H73.2987L73.0187 34.074V34.102H71.2687L70.9887 36.02H69.5607L71.1567 26.22ZM72.8367 32.772L72.1507 27.928H72.1227L71.4507 32.772H72.8367ZM72.2067 25.716C71.852 25.716 71.5533 25.5994 71.3107 25.366C71.0773 25.1234 70.9607 24.8294 70.9607 24.484C70.9607 24.1387 71.0773 23.8494 71.3107 23.616C71.5533 23.3734 71.852 23.252 72.2067 23.252C72.5613 23.252 72.8553 23.3734 73.0887 23.616C73.3313 23.8494 73.4527 24.1387 73.4527 24.484C73.4527 24.8294 73.3313 25.1234 73.0887 25.366C72.8553 25.5994 72.5613 25.716 72.2067 25.716ZM72.2067 24.974C72.3373 24.974 72.4447 24.932 72.5287 24.848C72.6127 24.7547 72.6547 24.6334 72.6547 24.484C72.6547 24.3347 72.6127 24.218 72.5287 24.134C72.4447 24.0407 72.3373 23.994 72.2067 23.994C72.076 23.994 71.9687 24.0407 71.8847 24.134C71.8007 24.218 71.7587 24.3347 71.7587 24.484C71.7587 24.6334 71.8007 24.7547 71.8847 24.848C71.9687 24.932 72.076 24.974 72.2067 24.974ZM76.5658 26.22H78.8478C79.6411 26.22 80.2198 26.4067 80.5838 26.78C80.9478 27.144 81.1298 27.7087 81.1298 28.474V29.076C81.1298 30.0934 80.7938 30.7374 80.1218 31.008V31.036C80.4951 31.148 80.7565 31.3767 80.9058 31.722C81.0645 32.0674 81.1438 32.5294 81.1438 33.108V34.83C81.1438 35.11 81.1531 35.3387 81.1718 35.516C81.1905 35.684 81.2371 35.852 81.3118 36.02H79.7438C79.6878 35.8614 79.6505 35.712 79.6318 35.572C79.6131 35.432 79.6038 35.18 79.6038 34.816V33.024C79.6038 32.576 79.5291 32.2634 79.3798 32.086C79.2398 31.9087 78.9925 31.82 78.6378 31.82H78.1058V36.02H76.5658V26.22ZM78.6658 30.42C78.9738 30.42 79.2025 30.3407 79.3518 30.182C79.5105 30.0234 79.5898 29.7574 79.5898 29.384V28.628C79.5898 28.2734 79.5245 28.0167 79.3938 27.858C79.2725 27.6994 79.0765 27.62 78.8058 27.62H78.1058V30.42H78.6658ZM83.1923 26.22H85.5443C86.3096 26.22 86.8836 26.4254 87.2663 26.836C87.6489 27.2467 87.8403 27.8487 87.8403 28.642V33.598C87.8403 34.3914 87.6489 34.9934 87.2663 35.404C86.8836 35.8147 86.3096 36.02 85.5443 36.02H83.1923V26.22ZM85.5163 34.62C85.7683 34.62 85.9596 34.5454 86.0903 34.396C86.2303 34.2467 86.3003 34.004 86.3003 33.668V28.572C86.3003 28.236 86.2303 27.9934 86.0903 27.844C85.9596 27.6947 85.7683 27.62 85.5163 27.62H84.7323V34.62H85.5163Z" fill="white"/>
<path d="M2.8 31V10.3333L12.0889 23.1333L21.2 10.3333V31H18.6667V21.7556C18.6667 21.1481 18.6741 20.4889 18.6889 19.7778C18.7037 19.0519 18.7556 18.2296 18.8444 17.3111C18.3852 18.1259 17.9333 18.8444 17.4889 19.4667C17.0593 20.0741 16.6667 20.637 16.3111 21.1556L12 27.2667L7.55556 21.1556C7.18519 20.637 6.78519 20.0741 6.35556 19.4667C5.94074 18.8444 5.4963 18.1259 5.02222 17.3111C5.11111 18.2296 5.16296 19.0519 5.17778 19.7778C5.19259 20.4889 5.2 21.1481 5.2 21.7556V31H2.8ZM28.4 31V11H34C35.2741 11 36.2815 11.2519 37.0222 11.7556C37.7778 12.2593 38.3185 12.8741 38.6444 13.6C38.9704 14.3111 39.1333 14.9852 39.1333 15.6222C39.1333 16.3481 38.963 17.0148 38.6222 17.6222C38.2963 18.2148 37.8519 18.7037 37.2889 19.0889C38.3704 19.5778 39.2444 20.3111 39.9111 21.2889C40.5926 22.2667 40.9333 23.3778 40.9333 24.6222C40.9333 25.6741 40.6667 26.6889 40.1333 27.6667C39.6148 28.6444 38.837 29.4444 37.8 30.0667C36.7778 30.6889 35.5111 31 34 31H28.4ZM30.9333 28.7333H33.8222C34.9185 28.7333 35.8 28.5185 36.4667 28.0889C37.1333 27.6593 37.6222 27.1185 37.9333 26.4667C38.2444 25.8148 38.4 25.1704 38.4 24.5333C38.4 23.9111 38.2519 23.2741 37.9556 22.6222C37.6593 21.9704 37.1778 21.4296 36.5111 21C35.8444 20.5556 34.9481 20.3333 33.8222 20.3333H30.9333V28.7333ZM30.9333 18.2H33.8C34.6741 18.2 35.3778 17.9926 35.9111 17.5778C36.4593 17.1481 36.7333 16.5407 36.7333 15.7556C36.7333 14.9407 36.4667 14.3259 35.9333 13.9111C35.4 13.4815 34.7185 13.2667 33.8889 13.2667H30.9333V18.2Z" fill="#9C0205"/>
</svg>
