<svg width="151" height="58" viewBox="0 0 151 58" fill="none" xmlns="http://www.w3.org/2000/svg">
<path d="M70.984 5.2H74.752L76.432 17.224H76.48L78.16 5.2H81.928V22H79.432V9.28H79.384L77.464 22H75.256L73.336 9.28H73.288V22H70.984V5.2ZM85.5781 5.2H88.2181V19.6H92.5621V22H85.5781V5.2ZM98.9401 22.24C97.6601 22.24 96.6921 21.88 96.0361 21.16C95.3801 20.424 95.0521 19.376 95.0521 18.016V17.056H97.5481V18.208C97.5481 19.296 98.0041 19.84 98.9161 19.84C99.3641 19.84 99.7001 19.712 99.9241 19.456C100.164 19.184 100.284 18.752 100.284 18.16C100.284 17.456 100.124 16.84 99.8041 16.312C99.4841 15.768 98.8921 15.12 98.0281 14.368C96.9401 13.408 96.1801 12.544 95.7481 11.776C95.3161 10.992 95.1001 10.112 95.1001 9.136C95.1001 7.808 95.4361 6.784 96.1081 6.064C96.7801 5.328 97.7561 4.96 99.0361 4.96C100.3 4.96 101.252 5.328 101.892 6.064C102.548 6.784 102.876 7.824 102.876 9.184V9.88H100.38V9.016C100.38 8.44 100.268 8.024 100.044 7.768C99.8201 7.496 99.4921 7.36 99.0601 7.36C98.1801 7.36 97.7401 7.896 97.7401 8.968C97.7401 9.576 97.9001 10.144 98.2201 10.672C98.5561 11.2 99.1561 11.84 100.02 12.592C101.124 13.552 101.884 14.424 102.3 15.208C102.716 15.992 102.924 16.912 102.924 17.968C102.924 19.344 102.58 20.4 101.892 21.136C101.22 21.872 100.236 22.24 98.9401 22.24ZM70.984 34.2H74.968C76.328 34.2 77.32 34.52 77.944 35.16C78.568 35.784 78.88 36.752 78.88 38.064V38.736C78.88 39.6 78.736 40.304 78.448 40.848C78.176 41.392 77.752 41.784 77.176 42.024V42.072C78.488 42.52 79.144 43.688 79.144 45.576V47.016C79.144 48.312 78.8 49.304 78.112 49.992C77.44 50.664 76.448 51 75.136 51H70.984V34.2ZM74.656 41.04C75.184 41.04 75.576 40.904 75.832 40.632C76.104 40.36 76.24 39.904 76.24 39.264V38.328C76.24 37.72 76.128 37.28 75.904 37.008C75.696 36.736 75.36 36.6 74.896 36.6H73.624V41.04H74.656ZM75.136 48.6C75.6 48.6 75.944 48.48 76.168 48.24C76.392 47.984 76.504 47.552 76.504 46.944V45.48C76.504 44.712 76.368 44.184 76.096 43.896C75.84 43.592 75.408 43.44 74.8 43.44H73.624V48.6H75.136ZM82.3671 34.2H85.0071V51H82.3671V34.2ZM88.6643 34.2H91.3043V48.6H95.6483V51H88.6643V34.2ZM96.7967 34.2H99.4607L101.189 47.232H101.237L102.965 34.2H105.389L102.845 51H99.3407L96.7967 34.2ZM109.697 34.2H113.273L116.009 51H113.369L112.889 47.664V47.712H109.889L109.409 51H106.961L109.697 34.2ZM112.577 45.432L111.401 37.128H111.353L110.201 45.432H112.577ZM111.497 33.336C110.889 33.336 110.377 33.136 109.961 32.736C109.561 32.32 109.361 31.816 109.361 31.224C109.361 30.632 109.561 30.136 109.961 29.736C110.377 29.32 110.889 29.112 111.497 29.112C112.105 29.112 112.609 29.32 113.009 29.736C113.425 30.136 113.633 30.632 113.633 31.224C113.633 31.816 113.425 32.32 113.009 32.736C112.609 33.136 112.105 33.336 111.497 33.336ZM111.497 32.064C111.721 32.064 111.905 31.992 112.049 31.848C112.193 31.688 112.265 31.48 112.265 31.224C112.265 30.968 112.193 30.768 112.049 30.624C111.905 30.464 111.721 30.384 111.497 30.384C111.273 30.384 111.089 30.464 110.945 30.624C110.801 30.768 110.729 30.968 110.729 31.224C110.729 31.48 110.801 31.688 110.945 31.848C111.089 31.992 111.273 32.064 111.497 32.064ZM118.97 34.2H122.882C124.242 34.2 125.234 34.52 125.858 35.16C126.482 35.784 126.794 36.752 126.794 38.064V39.096C126.794 40.84 126.218 41.944 125.066 42.408V42.456C125.706 42.648 126.154 43.04 126.41 43.632C126.682 44.224 126.818 45.016 126.818 46.008V48.96C126.818 49.44 126.834 49.832 126.866 50.136C126.898 50.424 126.978 50.712 127.106 51H124.418C124.322 50.728 124.258 50.472 124.226 50.232C124.194 49.992 124.178 49.56 124.178 48.936V45.864C124.178 45.096 124.05 44.56 123.794 44.256C123.554 43.952 123.13 43.8 122.522 43.8H121.61V51H118.97V34.2ZM122.57 41.4C123.098 41.4 123.49 41.264 123.746 40.992C124.018 40.72 124.154 40.264 124.154 39.624V38.328C124.154 37.72 124.042 37.28 123.818 37.008C123.61 36.736 123.274 36.6 122.81 36.6H121.61V41.4H122.57ZM130.33 34.2H134.362C135.674 34.2 136.658 34.552 137.314 35.256C137.97 35.96 138.298 36.992 138.298 38.352V46.848C138.298 48.208 137.97 49.24 137.314 49.944C136.658 50.648 135.674 51 134.362 51H130.33V34.2ZM134.314 48.6C134.746 48.6 135.074 48.472 135.298 48.216C135.538 47.96 135.658 47.544 135.658 46.968V38.232C135.658 37.656 135.538 37.24 135.298 36.984C135.074 36.728 134.746 36.6 134.314 36.6H132.97V48.6H134.314Z" fill="white"/>
<path d="M4.2 45V14L18.1333 33.2L31.8 14V45H28V31.1333C28 30.2222 28.0111 29.2333 28.0333 28.1667C28.0556 27.0778 28.1333 25.8444 28.2667 24.4667C27.5778 25.6889 26.9 26.7667 26.2333 27.7C25.5889 28.6111 25 29.4556 24.4667 30.2333L18 39.4L11.3333 30.2333C10.7778 29.4556 10.1778 28.6111 9.53333 27.7C8.91111 26.7667 8.24444 25.6889 7.53333 24.4667C7.66667 25.8444 7.74444 27.0778 7.76667 28.1667C7.78889 29.2333 7.8 30.2222 7.8 31.1333V45H4.2ZM42.6 45V15H51C52.9111 15 54.4222 15.3778 55.5333 16.1333C56.6667 16.8889 57.4778 17.8111 57.9667 18.9C58.4556 19.9667 58.7 20.9778 58.7 21.9333C58.7 23.0222 58.4444 24.0222 57.9333 24.9333C57.4444 25.8222 56.7778 26.5556 55.9333 27.1333C57.5556 27.8667 58.8667 28.9667 59.8667 30.4333C60.8889 31.9 61.4 33.5667 61.4 35.4333C61.4 37.0111 61 38.5333 60.2 40C59.4222 41.4667 58.2556 42.6667 56.7 43.6C55.1667 44.5333 53.2667 45 51 45H42.6ZM46.4 41.6H50.7333C52.3778 41.6 53.7 41.2778 54.7 40.6333C55.7 39.9889 56.4333 39.1778 56.9 38.2C57.3667 37.2222 57.6 36.2556 57.6 35.3C57.6 34.3667 57.3778 33.4111 56.9333 32.4333C56.4889 31.4556 55.7667 30.6444 54.7667 30C53.7667 29.3333 52.4222 29 50.7333 29H46.4V41.6ZM46.4 25.8H50.7C52.0111 25.8 53.0667 25.4889 53.8667 24.8667C54.6889 24.2222 55.1 23.3111 55.1 22.1333C55.1 20.9111 54.7 19.9889 53.9 19.3667C53.1 18.7222 52.0778 18.4 50.8333 18.4H46.4V25.8Z" fill="#9C0205"/>
</svg>
